<svg
  width="148"
  height="148"
  viewBox="0 0 148 148"
  fill="none"
  xmlns="http://www.w3.org/2000/svg"
>
<circle cx="74" cy="74" r="74" fill="#EC776D" />
<circle cx="74" cy="74" r="74" fill="url(#paint0_radial_475_37844)" />
<g filter="url(#filter0_di_475_37844)">
<path
      fill-rule="evenodd"
      clip-rule="evenodd"
      d="M34.6211 34.6328C32.2852 36.9739 32.2852 40.7696 34.6211 43.1107L65.7796 74.3381L35.4521 104.733C33.1162 107.074 33.1162 110.869 35.4521 113.211C37.788 115.552 41.5753 115.552 43.9113 113.211L74.2388 82.816L103.922 112.565C106.258 114.906 110.045 114.906 112.381 112.565C114.717 110.224 114.717 106.428 112.381 104.087L82.698 74.3381L113.212 43.7564C115.548 41.4153 115.548 37.6196 113.212 35.2785C110.876 32.9374 107.089 32.9374 104.753 35.2785L74.2388 65.8602L43.0803 34.6328C40.7443 32.2917 36.957 32.2917 34.6211 34.6328Z"
      fill="#E9E5E5"
    />
</g>
<defs>
<filter
      id="filter0_di_475_37844"
      x="27.8691"
      y="26.877"
      width="98.0947"
      height="98.0898"
      filterUnits="userSpaceOnUse"
      color-interpolation-filters="sRGB"
    >
<feFlood flood-opacity="0" result="BackgroundImageFix" />
<feColorMatrix
        in="SourceAlpha"
        type="matrix"
        values="0 0 0 0 0 0 0 0 0 0 0 0 0 0 0 0 0 0 127 0"
        result="hardAlpha"
      />
<feOffset dx="3" dy="2" />
<feGaussianBlur stdDeviation="4" />
<feColorMatrix
        type="matrix"
        values="0 0 0 0 0.616939 0 0 0 0 0.180064 0 0 0 0 0.0962797 0 0 0 1 0"
      />
<feBlend
        mode="normal"
        in2="BackgroundImageFix"
        result="effect1_dropShadow_475_37844"
      />
<feBlend
        mode="normal"
        in="SourceGraphic"
        in2="effect1_dropShadow_475_37844"
        result="shape"
      />
<feColorMatrix
        in="SourceAlpha"
        type="matrix"
        values="0 0 0 0 0 0 0 0 0 0 0 0 0 0 0 0 0 0 127 0"
        result="hardAlpha"
      />
<feOffset dx="-1" dy="4" />
<feGaussianBlur stdDeviation="1" />
<feComposite in2="hardAlpha" operator="arithmetic" k2="-1" k3="1" />
<feColorMatrix type="matrix" values="0 0 0 0 1 0 0 0 0 1 0 0 0 0 1 0 0 0 1 0" />
<feBlend mode="normal" in2="shape" result="effect2_innerShadow_475_37844" />
</filter>
<radialGradient
      id="paint0_radial_475_37844"
      cx="0"
      cy="0"
      r="1"
      gradientUnits="userSpaceOnUse"
      gradientTransform="translate(9.93074 127.976) rotate(-43.0125) scale(146.766 159.72)"
    >
<stop stop-color="#E84731" stop-opacity="0.42" />
<stop offset="1" stop-color="#FD6949" />
</radialGradient>
</defs>
</svg>
